<svg width="16" height="17" viewBox="0 0 16 17" fill="none" xmlns="http://www.w3.org/2000/svg">
<path fill-rule="evenodd" clip-rule="evenodd" d="M7.7238 1.52588e-05C5.30123 1.52588e-05 3.31165 1.96372 3.27994 4.38608C3.24823 6.80844 5.1864 8.77215 7.60896 8.77215C10.0315 8.77215 12.0211 6.80844 12.0528 4.38608C12.0845 1.96372 10.1464 1.52588e-05 7.7238 1.52588e-05ZM5.02928 4.38608C5.04834 2.92977 6.24447 1.7492 7.7009 1.7492C9.15733 1.7492 10.3225 2.92977 10.3035 4.38608C10.2844 5.84239 9.08829 7.02296 7.63186 7.02296C6.17543 7.02296 5.01021 5.84239 5.02928 4.38608ZM5.11275 10.1199C2.34811 10.1199 0.0775971 12.3609 0.0414092 15.1253L0.0305941 15.9515C0.0242713 16.4345 0.410728 16.826 0.89377 16.826C1.37681 16.826 1.77352 16.4345 1.77984 15.9515L1.79066 15.1253C1.8142 13.3269 3.2913 11.869 5.08985 11.869H10.0473C11.8458 11.869 13.2848 13.3269 13.2612 15.1253L13.2504 15.9515C13.2441 16.4345 13.6305 16.826 14.1136 16.826C14.5966 16.826 14.9933 16.4345 14.9997 15.9515L15.0105 15.1253C15.0467 12.3609 12.8348 10.1199 10.0702 10.1199H5.11275Z" fill="#A4B4CB"/>
</svg>
