<svg width="16" height="18" viewBox="0 0 16 18" fill="none" xmlns="http://www.w3.org/2000/svg">
<path d="M14.3755 5.83147L9.3337 1.4115C8.87152 0.998108 8.27319 0.769566 7.6531 0.769566C7.03302 0.769566 6.43469 0.998108 5.9725 1.4115L0.930711 5.83147C0.663805 6.07018 0.450816 6.36301 0.305925 6.69046C0.161034 7.01791 0.0875653 7.37248 0.0904117 7.73054V15.0748C0.0904117 15.7433 0.356005 16.3845 0.828765 16.8573C1.30153 17.3301 1.94273 17.5957 2.61131 17.5957H12.6949C13.3635 17.5957 14.0047 17.3301 14.4774 16.8573C14.9502 16.3845 15.2158 15.7433 15.2158 15.0748V7.72214C15.2174 7.36549 15.1434 7.01254 14.9985 6.68663C14.8537 6.36071 14.6413 6.06924 14.3755 5.83147ZM9.3337 15.9151H5.9725V11.7136C5.9725 11.4907 6.06104 11.277 6.21862 11.1194C6.37621 10.9618 6.58994 10.8733 6.8128 10.8733H8.4934C8.71626 10.8733 8.93 10.9618 9.08758 11.1194C9.24517 11.277 9.3337 11.4907 9.3337 11.7136V15.9151ZM13.5352 15.0748C13.5352 15.2976 13.4467 15.5114 13.2891 15.6689C13.1315 15.8265 12.9178 15.9151 12.6949 15.9151H11.0143V11.7136C11.0143 11.045 10.7487 10.4038 10.2759 9.93102C9.80318 9.45826 9.16198 9.19266 8.4934 9.19266H6.8128C6.14422 9.19266 5.50302 9.45826 5.03026 9.93102C4.5575 10.4038 4.29191 11.045 4.29191 11.7136V15.9151H2.61131C2.38845 15.9151 2.17471 15.8265 2.01713 15.6689C1.85954 15.5114 1.77101 15.2976 1.77101 15.0748V7.72214C1.77116 7.60283 1.79672 7.48492 1.84598 7.37626C1.89524 7.26759 1.96708 7.17066 2.05671 7.09192L7.0985 2.68035C7.25185 2.54563 7.44899 2.47134 7.6531 2.47134C7.85722 2.47134 8.05435 2.54563 8.2077 2.68035L13.2495 7.09192C13.3391 7.17066 13.411 7.26759 13.4602 7.37626C13.5095 7.48492 13.535 7.60283 13.5352 7.72214V15.0748Z" fill="url(#paint0_linear_304_1777)"/>
<defs>
<linearGradient id="paint0_linear_304_1777" x1="0.0903321" y1="9.42298" x2="15.2158" y2="9.42298" gradientUnits="userSpaceOnUse">
<stop stop-color="#3E79E5"/>
<stop offset="1" stop-color="#01B8E3"/>
</linearGradient>
</defs>
</svg>
