<svg width="16" height="17" viewBox="0 0 16 17" fill="none" xmlns="http://www.w3.org/2000/svg">
<path d="M14.2852 5.0619L9.24337 0.641931C8.78118 0.228542 8.18285 0 7.56277 0C6.94269 0 6.34436 0.228542 5.88217 0.641931L0.840379 5.0619C0.573473 5.30061 0.360484 5.59344 0.215593 5.92089C0.0707015 6.24835 -0.00276673 6.60291 7.96554e-05 6.96098V14.3052C7.96554e-05 14.9738 0.265673 15.615 0.738433 16.0877C1.21119 16.5605 1.85239 16.8261 2.52098 16.8261H12.6046C13.2731 16.8261 13.9143 16.5605 14.3871 16.0877C14.8599 15.615 15.1255 14.9738 15.1255 14.3052V6.95258C15.1271 6.59592 15.0531 6.24298 14.9082 5.91706C14.7634 5.59114 14.551 5.29967 14.2852 5.0619ZM9.24337 15.1455H5.88217V10.944C5.88217 10.7211 5.9707 10.5074 6.12829 10.3498C6.28588 10.1922 6.49961 10.1037 6.72247 10.1037H8.40307C8.62593 10.1037 8.83966 10.1922 8.99725 10.3498C9.15484 10.5074 9.24337 10.7211 9.24337 10.944V15.1455ZM13.4449 14.3052C13.4449 14.5281 13.3563 14.7418 13.1987 14.8994C13.0412 15.057 12.8274 15.1455 12.6046 15.1455H10.924V10.944C10.924 10.2754 10.6584 9.63421 10.1856 9.16145C9.71285 8.68869 9.07165 8.4231 8.40307 8.4231H6.72247C6.05389 8.4231 5.41269 8.68869 4.93993 9.16145C4.46717 9.63421 4.20157 10.2754 4.20157 10.944V15.1455H2.52098C2.29812 15.1455 2.08438 15.057 1.9268 14.8994C1.76921 14.7418 1.68068 14.5281 1.68068 14.3052V6.95258C1.68083 6.83327 1.70639 6.71536 1.75565 6.60669C1.80491 6.49803 1.87675 6.4011 1.96638 6.32235L7.00817 1.91078C7.16152 1.77607 7.35865 1.70177 7.56277 1.70177C7.76689 1.70177 7.96402 1.77607 8.11737 1.91078L13.1592 6.32235C13.2488 6.4011 13.3206 6.49803 13.3699 6.60669C13.4192 6.71536 13.4447 6.83327 13.4449 6.95258V14.3052Z" fill="#A4B4CB"/>
</svg>
