<svg width="22" height="13" viewBox="0 0 22 13" fill="none" xmlns="http://www.w3.org/2000/svg">
<path fill-rule="evenodd" clip-rule="evenodd" d="M21.0135 2.03294C21.5235 2.54296 21.5235 3.36988 21.0135 3.8799L13.1775 11.7159C12.6675 12.2259 11.8405 12.2259 11.3305 11.7159L7.03 7.41538L2.72948 11.7159C2.21946 12.2259 1.39254 12.2259 0.882519 11.7159C0.372494 11.2059 0.372494 10.379 0.882519 9.86894L6.10652 4.64494C6.61654 4.13492 7.44346 4.13492 7.95348 4.64494L12.254 8.94546L19.1665 2.03294C19.6765 1.52291 20.5035 1.52291 21.0135 2.03294Z" fill="#37DF34"/>
<path fill-rule="evenodd" clip-rule="evenodd" d="M14.866 1.97693C14.866 1.25565 15.4507 0.670929 16.172 0.670929H20.09C20.8112 0.670929 21.396 1.25565 21.396 1.97693V5.89493C21.396 6.61621 20.8112 7.20093 20.09 7.20093C19.3687 7.20093 18.784 6.61621 18.784 5.89493V3.28293H16.172C15.4507 3.28293 14.866 2.69821 14.866 1.97693Z" fill="#37DF34"/>
</svg>
