<svg width="645" height="332" viewBox="0 0 645 332" fill="none" xmlns="http://www.w3.org/2000/svg">
<g clip-path="url(#clip0_10_1195)">
<rect width="645" height="332" fill="url(#paint0_linear_10_1195)"/>
<ellipse opacity="0.2" cx="289.009" cy="145.982" rx="3.36204" ry="3.50427" transform="rotate(90 289.009 145.982)" fill="#01B8E3"/>
<ellipse opacity="0.2" cx="197.898" cy="112.362" rx="3.36204" ry="3.50427" transform="rotate(90 197.898 112.362)" fill="#01B8E3"/>
<ellipse cx="257.504" cy="109.362" rx="3.36204" ry="3.50427" transform="rotate(90 257.504 109.362)" fill="#01B8E3"/>
<ellipse cx="393.901" cy="128.629" rx="3.36204" ry="3.50427" transform="rotate(90 393.901 128.629)" fill="#01B8E3"/>
<ellipse cx="338.504" cy="209.362" rx="3.36204" ry="3.50427" transform="rotate(90 338.504 209.362)" fill="#4A00C5"/>
<ellipse opacity="0.2" cx="373.112" cy="305.118" rx="3.36204" ry="3.50427" transform="rotate(90 373.112 305.118)" fill="#01B8E3"/>
<ellipse opacity="0.2" cx="74.08" cy="47.362" rx="3.36204" ry="3.50427" transform="rotate(90 74.08 47.362)" fill="#01B8E3"/>
<ellipse opacity="0.26" cx="34.3648" cy="179.603" rx="3.36204" ry="3.50427" transform="rotate(90 34.3648 179.603)" fill="#01B8E3"/>
<path d="M605.1 362.425C568.833 393.166 530.599 414.583 498.122 424.374C481.882 429.269 467.11 431.249 454.757 430.056C442.407 428.863 432.514 424.504 425.949 416.758C419.384 409.012 416.704 398.539 417.551 386.161C418.397 373.779 422.771 359.531 430.261 344.313C445.24 313.878 472.632 279.67 508.9 248.929C545.168 218.188 583.401 196.771 615.878 186.981C632.118 182.085 646.89 180.105 659.244 181.299C671.593 182.492 681.486 186.851 688.051 194.597C694.617 202.342 697.296 212.815 696.449 225.194C695.603 237.576 691.229 251.824 683.739 267.042C668.76 297.476 641.368 331.684 605.1 362.425Z" stroke="url(#paint1_linear_10_1195)" stroke-width="1.20417"/>
<path d="M183.767 10.1663C147.511 40.8966 108.026 60.8108 73.5164 68.1863C38.9792 75.5677 9.58906 70.3674 -6.71801 51.1286C-23.0251 31.8898 -23.3398 2.04479 -10.3996 -30.8164C2.53025 -63.6512 28.6447 -99.3404 64.8997 -130.071C101.155 -160.801 140.64 -180.715 175.15 -188.091C209.687 -195.472 239.077 -190.272 255.384 -171.033C271.691 -151.794 272.006 -121.949 259.066 -89.088C246.136 -56.2532 220.022 -20.564 183.767 10.1663Z" stroke="url(#paint2_linear_10_1195)" stroke-width="1.20417"/>
</g>
<defs>
<linearGradient id="paint0_linear_10_1195" x1="677.734" y1="-4.59513" x2="391.15" y2="531.113" gradientUnits="userSpaceOnUse">
<stop stop-color="#01B8E3"/>
<stop offset="0.344233"/>
<stop offset="0.764539" stop-color="#172E56"/>
<stop offset="1" stop-color="#3D7AE5"/>
</linearGradient>
<linearGradient id="paint1_linear_10_1195" x1="688.511" y1="194.207" x2="425.49" y2="417.147" gradientUnits="userSpaceOnUse">
<stop stop-color="#4A00C5"/>
<stop offset="1" stop-color="#01B8E3"/>
</linearGradient>
<linearGradient id="paint2_linear_10_1195" x1="255.844" y1="-171.422" x2="-7.1773" y2="51.5179" gradientUnits="userSpaceOnUse">
<stop stop-color="#4A00C5" stop-opacity="0"/>
<stop offset="1" stop-color="#01B8E3"/>
</linearGradient>
<clipPath id="clip0_10_1195">
<rect width="645" height="332" fill="white"/>
</clipPath>
</defs>
</svg>
