<svg width="23" height="23" viewBox="0 0 23 23" fill="none" xmlns="http://www.w3.org/2000/svg">
<g clip-path="url(#clip0_304_1305)">
<path d="M19.3225 9.19368L12.1398 17.6676L11.5482 18.365L8.33758 22.1526L9.27518 18.4026L10.488 13.5551L3.65234 13.5551L10.8356 5.08115L14.6367 0.597229L12.4869 9.19368L19.3225 9.19368Z" fill="url(#paint0_linear_304_1305)"/>
<path d="M19.3225 9.19177L12.482 17.2712L12.1406 17.6752L12.6207 15.7595C12.6862 15.4982 12.691 15.2254 12.6347 14.962C12.5785 14.6986 12.4628 14.4514 12.2963 14.2391C12.1299 14.0269 11.9171 13.8553 11.6741 13.7373C11.4311 13.6193 11.1642 13.558 10.8939 13.5581L3.65234 13.5581L10.8382 5.07466L10.3591 6.99032C10.2944 7.25159 10.2901 7.5241 10.3466 7.78726C10.4031 8.05042 10.5188 8.29736 10.6852 8.5094C10.8515 8.72145 11.064 8.89306 11.3067 9.01127C11.5494 9.12949 11.8158 9.19121 12.086 9.19177L19.3225 9.19177Z" fill="url(#paint1_linear_304_1305)"/>
</g>
<defs>
<linearGradient id="paint0_linear_304_1305" x1="19.3225" y1="9.18514" x2="3.97151" y2="13.4114" gradientUnits="userSpaceOnUse">
<stop offset="0.01" stop-color="#36D9FF"/>
<stop offset="0.255208" stop-color="#3D8AEA"/>
<stop offset="0.5" stop-color="#4444D7"/>
<stop offset="0.98" stop-color="#3A3345"/>
</linearGradient>
<linearGradient id="paint1_linear_304_1305" x1="3.65234" y1="13.4424" x2="19.3103" y2="9.06793" gradientUnits="userSpaceOnUse">
<stop stop-color="#36D9FF"/>
<stop offset="1" stop-color="#4A00C5"/>
</linearGradient>
<clipPath id="clip0_304_1305">
<rect width="21.6726" height="21.5554" fill="white" transform="translate(0.870361 0.597504)"/>
</clipPath>
</defs>
</svg>
