<svg width="16" height="16" viewBox="0 0 16 16" fill="none" xmlns="http://www.w3.org/2000/svg">
<path d="M8.15558 0.500001L8.15558 2.16667L2.32224 2.16667L2.32225 13.8333L8.15558 13.8333L8.15558 15.5L2.32225 15.5C1.86391 15.5 1.47141 15.3369 1.14475 15.0108C0.818634 14.6842 0.655579 14.2917 0.655578 13.8333L0.655577 2.16667C0.655577 1.70834 0.818633 1.31584 1.14474 0.989168C1.47141 0.663057 1.86391 0.500001 2.32224 0.500001L8.15558 0.500001ZM9.82224 3.83333L10.9681 5.04167L8.84308 7.16667L15.6556 7.16667L15.6556 8.83333L8.84308 8.83333L10.9681 10.9583L9.82225 12.1667L5.65558 8L9.82224 3.83333Z" fill="#C8C8C8"/>
</svg>
