<svg width="21" height="13" viewBox="0 0 21 13" fill="none" xmlns="http://www.w3.org/2000/svg">
<path fill-rule="evenodd" clip-rule="evenodd" d="M0.382935 10.7774C-0.12759 10.2669 -0.12759 9.43914 0.382935 8.92861L8.22661 1.08494C8.73713 0.574415 9.56485 0.574415 10.0754 1.08494L14.3801 5.38967L18.6848 1.08494C19.1954 0.574415 20.0231 0.574415 20.5336 1.08494C21.0441 1.59546 21.0441 2.42319 20.5336 2.93371L15.3045 8.16283C14.794 8.67335 13.9662 8.67335 13.4557 8.16283L9.15099 3.8581L2.2317 10.7774C1.72118 11.2879 0.893457 11.2879 0.382935 10.7774Z" fill="#DF3434"/>
<path fill-rule="evenodd" clip-rule="evenodd" d="M6.53662 10.8335C6.53662 11.5555 5.95133 12.1407 5.22934 12.1407H1.30751C0.585515 12.1407 0.000226498 11.5555 0.000226498 10.8335V6.91163C0.000226498 6.18964 0.585515 5.60435 1.30751 5.60435C2.0295 5.60435 2.61478 6.18964 2.61478 6.91163V9.52619H5.22934C5.95133 9.52619 6.53662 10.1115 6.53662 10.8335Z" fill="#DF3434"/>
</svg>
