<svg width="58" height="58" viewBox="0 0 58 58" fill="none" xmlns="http://www.w3.org/2000/svg">
<path d="M29 32.2222C32.1148 32.2222 34.7732 31.1213 36.975 28.9194C39.1769 26.7176 40.2778 24.0593 40.2778 20.9444C40.2778 17.8296 39.1769 15.1713 36.975 12.9694C34.7732 10.7676 32.1148 9.66667 29 9.66667C25.8852 9.66667 23.2268 10.7676 21.025 12.9694C18.8231 15.1713 17.7222 17.8296 17.7222 20.9444C17.7222 24.0593 18.8231 26.7176 21.025 28.9194C23.2268 31.1213 25.8852 32.2222 29 32.2222ZM0 58V0H58V58H0ZM6.44444 51.5556H51.5556V47.85C48.6556 45.0037 45.2862 42.761 41.4474 41.122C37.6066 39.4851 33.4574 38.6667 29 38.6667C24.5426 38.6667 20.3945 39.4851 16.5558 41.122C12.7149 42.761 9.34444 45.0037 6.44444 47.85V51.5556Z" fill="#CCCCCC"/>
</svg>
