<svg width="18" height="18" viewBox="0 0 18 18" fill="none" xmlns="http://www.w3.org/2000/svg">
<g clip-path="url(#clip0_304_1770)">
<path d="M4.79661 11.1621H7.32052C7.54365 11.1621 7.75764 11.0734 7.91541 10.9156C8.07319 10.7579 8.16183 10.5439 8.16183 10.3207C8.16183 10.0976 8.07319 9.88363 7.91541 9.72586C7.75764 9.56808 7.54365 9.47944 7.32052 9.47944H4.79661C4.57348 9.47944 4.35949 9.56808 4.20172 9.72586C4.04394 9.88363 3.95531 10.0976 3.95531 10.3207C3.95531 10.5439 4.04394 10.7579 4.20172 10.9156C4.35949 11.0734 4.57348 11.1621 4.79661 11.1621ZM14.8923 2.74901H3.114C2.44462 2.74901 1.80265 3.01492 1.32932 3.48825C0.855999 3.96157 0.590088 4.60354 0.590088 5.27292V12.8447C0.590088 13.514 0.855999 14.156 1.32932 14.6293C1.80265 15.1027 2.44462 15.3686 3.114 15.3686H14.8923C15.5616 15.3686 16.2036 15.1027 16.6769 14.6293C17.1503 14.156 17.4162 13.514 17.4162 12.8447V5.27292C17.4162 4.60354 17.1503 3.96157 16.6769 3.48825C16.2036 3.01492 15.5616 2.74901 14.8923 2.74901ZM15.7336 12.8447C15.7336 13.0678 15.6449 13.2818 15.4872 13.4396C15.3294 13.5973 15.1154 13.686 14.8923 13.686H3.114C2.89087 13.686 2.67688 13.5973 2.51911 13.4396C2.36133 13.2818 2.2727 13.0678 2.2727 12.8447V7.79683H15.7336V12.8447ZM15.7336 6.11423H2.2727V5.27292C2.2727 5.04979 2.36133 4.8358 2.51911 4.67803C2.67688 4.52025 2.89087 4.43162 3.114 4.43162H14.8923C15.1154 4.43162 15.3294 4.52025 15.4872 4.67803C15.6449 4.8358 15.7336 5.04979 15.7336 5.27292V6.11423Z" fill="#A4B4CB"/>
</g>
<defs>
<clipPath id="clip0_304_1770">
<rect width="16.8261" height="16.8261" fill="white" transform="translate(0.590088 0.645752)"/>
</clipPath>
</defs>
</svg>
