<svg width="17" height="13" viewBox="0 0 17 13" fill="none" xmlns="http://www.w3.org/2000/svg">
<path d="M4.20652 8.41304H6.73043C6.95356 8.41304 7.16755 8.32441 7.32533 8.16663C7.4831 8.00886 7.57174 7.79487 7.57174 7.57174C7.57174 7.34861 7.4831 7.13462 7.32533 6.97685C7.16755 6.81907 6.95356 6.73043 6.73043 6.73043H4.20652C3.98339 6.73043 3.7694 6.81907 3.61163 6.97685C3.45385 7.13462 3.36522 7.34861 3.36522 7.57174C3.36522 7.79487 3.45385 8.00886 3.61163 8.16663C3.7694 8.32441 3.98339 8.41304 4.20652 8.41304ZM14.3022 0H2.52391C1.85453 0 1.21256 0.265912 0.739237 0.739237C0.265912 1.21256 0 1.85453 0 2.52391V10.0957C0 10.765 0.265912 11.407 0.739237 11.8803C1.21256 12.3537 1.85453 12.6196 2.52391 12.6196H14.3022C14.9716 12.6196 15.6135 12.3537 16.0868 11.8803C16.5602 11.407 16.8261 10.765 16.8261 10.0957V2.52391C16.8261 1.85453 16.5602 1.21256 16.0868 0.739237C15.6135 0.265912 14.9716 0 14.3022 0ZM15.1435 10.0957C15.1435 10.3188 15.0548 10.5328 14.8971 10.6905C14.7393 10.8483 14.5253 10.937 14.3022 10.937H2.52391C2.30079 10.937 2.0868 10.8483 1.92902 10.6905C1.77125 10.5328 1.68261 10.3188 1.68261 10.0957V5.04783H15.1435V10.0957ZM15.1435 3.36522H1.68261V2.52391C1.68261 2.30079 1.77125 2.0868 1.92902 1.92902C2.0868 1.77125 2.30079 1.68261 2.52391 1.68261H14.3022C14.5253 1.68261 14.7393 1.77125 14.8971 1.92902C15.0548 2.0868 15.1435 2.30079 15.1435 2.52391V3.36522Z" fill="url(#paint0_linear_429_827)"/>
<defs>
<linearGradient id="paint0_linear_429_827" x1="1.23983e-07" y1="6.49006" x2="16.8261" y2="6.49006" gradientUnits="userSpaceOnUse">
<stop stop-color="#3E79E5"/>
<stop offset="1" stop-color="#01B8E3"/>
</linearGradient>
</defs>
</svg>
